<svg width="45" height="53" viewBox="0 0 45 53" fill="none" xmlns="http://www.w3.org/2000/svg">
<path d="M38.5654 7.37899L25.7601 1.89101C25.7233 1.87527 25.687 1.85967 25.651 1.84424C24.2024 1.22319 23.3363 0.85187 22.4118 0.85187C21.4872 0.85187 20.6211 1.22319 19.1726 1.84424C19.1366 1.85967 19.1002 1.87526 19.0634 1.89101L6.25817 7.37898L6.2288 7.39157C4.93954 7.94411 3.9319 8.37595 3.16645 8.81474C2.38386 9.26336 1.80818 9.74408 1.41521 10.4184C1.02225 11.0928 0.887833 11.8306 0.883351 12.7327C0.878967 13.615 1.00003 14.7045 1.15494 16.0986L1.15847 16.1304L2.6728 29.7594L2.68676 29.885C3.11232 33.7159 3.34179 35.7815 4.30527 37.5734C5.26875 39.3652 6.86546 40.6957 9.82658 43.1632L9.92364 43.2441L14.4095 46.9823L14.4366 47.0049C16.2503 48.5163 17.6472 49.6804 18.8631 50.4624C20.0966 51.2558 21.1936 51.6898 22.4118 51.6898C23.6299 51.6898 24.7269 51.2558 25.9605 50.4624C27.1763 49.6804 28.5733 48.5163 30.3869 47.0049L30.4141 46.9823L34.8999 43.2441L34.997 43.1632C37.9581 40.6957 39.5548 39.3652 40.5183 37.5734C41.4817 35.7815 41.7112 33.7159 42.1368 29.885L42.1507 29.7594L43.6651 16.1304L43.6686 16.0987C43.8235 14.7046 43.9446 13.615 43.9402 12.7327C43.9357 11.8306 43.8013 11.0928 43.4083 10.4184C43.0154 9.74408 42.4397 9.26336 41.6571 8.81474C40.8916 8.37595 39.884 7.94412 38.5948 7.39159L38.5654 7.37899Z" stroke="#212121" stroke-linecap="round" stroke-linejoin="round"/>
</svg>
